<svg width="16" height="16" viewBox="0 0 16 16" fill="none" xmlns="http://www.w3.org/2000/svg">
<path d="M13.5114 7.82224C12.7114 6.97779 11.6447 6.40001 10.5336 6.17779C10.0447 6.04446 9.5558 5.95557 9.06691 5.91113C10.3114 4.44446 10.0891 2.22224 8.62247 0.977792C7.1558 -0.266653 4.93358 -0.0444304 3.68914 1.42224C2.44469 2.8889 2.66691 5.11113 4.13358 6.35557C4.40025 6.57779 4.66691 6.75557 4.93358 6.84446V7.82224L4.22247 7.15557C3.60025 6.53335 2.57803 6.53335 1.91136 7.15557C1.28914 7.77779 1.24469 8.75557 1.86691 9.37779L3.91136 11.7778C4.00025 12.4 4.22247 12.9778 4.53358 13.5111C4.7558 13.9111 5.06691 14.3111 5.37803 14.6222V15.4667C5.37803 15.7333 5.5558 15.9111 5.82247 15.9111H11.8669C12.0891 15.9111 12.3114 15.6889 12.3114 15.4667V14.3111C13.1558 13.2889 13.6002 12 13.6002 10.7111V8.13335C13.6447 7.95557 13.6002 7.86668 13.5114 7.82224ZM3.73358 3.64446C3.73358 2.17779 4.93358 1.02224 6.40025 1.06668C7.86691 1.06668 9.02247 2.26668 8.97803 3.73335C8.97803 4.53335 8.62247 5.24446 8.00025 5.73335V3.51113C7.97755 3.12596 7.80838 2.76406 7.52742 2.49962C7.24645 2.23518 6.87497 2.08823 6.48914 2.0889C5.68914 2.04446 4.97803 2.71113 4.97803 3.51113V5.82224C4.22247 5.37779 3.77803 4.53335 3.73358 3.64446ZM12.7558 10.6667C12.8002 11.8222 12.4002 12.9333 11.6447 13.8222C11.5558 13.9111 11.4669 14 11.4669 14.1333V15.0667H6.31136V14.4445C6.31136 14.3111 6.22247 14.1778 6.13358 14.0889C5.82247 13.8222 5.5558 13.5111 5.33358 13.1111C5.06691 12.6667 4.88914 12.1333 4.80025 11.6C4.80025 11.5111 4.7558 11.4222 4.71136 11.3333L2.57803 8.80001C2.44469 8.66668 2.3558 8.4889 2.3558 8.26668C2.3558 8.0889 2.44469 7.86668 2.57803 7.73335C2.88914 7.46668 3.33358 7.46668 3.64469 7.73335L4.93358 9.02224V10.3556L5.77803 9.91113V3.51113C5.82247 3.20001 6.08914 2.93335 6.44469 2.97779C6.7558 2.97779 7.06691 3.20001 7.06691 3.51113V8.62224L7.9558 8.80001V6.75557C8.00025 6.71113 8.04469 6.71113 8.08914 6.66668C8.40025 6.66668 8.71136 6.71113 9.02247 6.75557V9.02224L9.73358 9.15557V6.84446L10.2669 6.97779C10.4891 7.02224 10.7114 7.11113 10.9336 7.20001V9.42224L11.6447 9.55557V7.51113C12.0447 7.6889 12.4002 7.95557 12.7114 8.26668L12.7558 10.6667Z" fill="white"/>
</svg>
