<svg width="44" height="18" viewBox="0 0 44 18" fill="none" xmlns="http://www.w3.org/2000/svg">
<g id="esd_logo_NoTexte_Jade 1" opacity="0.9" clip-path="url(#clip0_294_339)">
<path id="Vector" d="M37.978 15.1498C36.4786 15.1498 34.7579 14.35 34.7579 12.0742V10.6245C34.7579 8.34981 36.4786 7.54893 37.9535 7.54893C39.8464 7.54893 41.1983 8.79906 41.1983 10.6245V12.0742C41.1983 14.3489 39.4776 15.1498 37.978 15.1498ZM9.24442 10.6996H2.80564V10.6006C2.80564 8.32588 4.52611 7.52475 6.00127 7.52475C7.8939 7.52475 9.24442 8.77442 9.24442 10.6006V10.6996ZM41.1983 0V5.54955C40.206 4.98871 39.0888 4.69616 37.9535 4.69986C37.2167 4.69635 36.4849 4.82303 35.7907 5.07424C35.0874 5.31091 34.4361 5.68466 33.8733 6.17462C32.6202 7.24894 31.9805 8.77418 31.956 10.5248V10.7029H26.3715C25.6271 10.2144 24.757 9.9611 23.8711 9.97503H21.1419C20.2074 9.97503 19.6423 9.39973 19.5926 9.19974V8.72585C19.5926 8.05055 20.8954 7.55012 22.0025 7.55012C23.1095 7.55012 24.3855 8.17471 24.3855 8.72585H27.1636C27.1767 8.05906 26.988 7.4043 26.6231 6.85016C26.2912 6.33296 25.8339 5.91148 25.2952 5.62633C24.2999 5.02085 23.1618 4.70101 22.002 4.70081C20.827 4.70078 19.6733 5.02007 18.6603 5.62562C18.1312 5.92451 17.6768 6.34326 17.3324 6.84945C16.9781 7.40855 16.7906 8.06001 16.7926 8.72514V9.19903C16.7828 9.76411 16.9183 10.322 17.1855 10.8175C17.4528 11.313 17.8426 11.7289 18.3164 12.0242C19.1705 12.5423 20.1487 12.8104 21.143 12.799H23.8713C24.8051 12.799 25.0014 13.4241 25.0014 13.5733C25.0014 14.6493 24.1425 15.1734 22.4453 15.1734H22.1248C21.4842 15.2091 20.8427 15.1244 20.2324 14.9237C18.9788 14.4988 18.9788 13.7726 18.9788 13.5224C18.9686 13.2728 19.0384 13.0267 19.1777 12.821C18.7586 12.7006 18.3585 12.5199 17.9896 12.2843C17.5701 12.0142 17.2141 11.6536 16.9466 11.2283C16.843 11.0606 16.7555 10.8833 16.6852 10.6987H12.0491V10.5996C12.0856 9.37711 11.7315 8.17548 11.0399 7.17491C10.3483 6.17434 9.35646 5.42873 8.21307 5.04984C7.50209 4.79794 6.75413 4.67101 6.00127 4.6745C5.2642 4.67097 4.53216 4.79798 3.83792 5.04984C3.13445 5.28544 2.4831 5.65878 1.9206 6.14881C1.31095 6.69006 0.823892 7.35928 0.492976 8.11038C0.16206 8.86149 -0.00485311 9.67663 0.0037332 10.4996V12.3004C0.00223366 13.0948 0.143644 13.8828 0.420979 14.6254C0.492953 14.7962 0.574069 14.9629 0.663965 15.1246C0.94337 15.6298 1.31094 16.079 1.74866 16.4501C2.88438 17.4337 4.42547 17.9581 6.34746 17.9749C6.37961 17.9749 6.41106 17.9749 6.44391 17.9749H12.0475V15.1239H6.36307C5.46451 15.1168 4.70596 14.9905 4.13309 14.6751C3.63345 14.4412 3.23259 14.0331 3.00297 13.5248H16.1768C16.1768 15.2493 17.0372 16.5996 18.6838 17.3496C19.7328 17.7722 20.8499 17.9927 21.9782 18C23.0961 18.0195 24.2068 17.8154 25.2472 17.3993C26.9178 16.6996 27.8034 15.4 27.8034 13.574C27.8034 13.5575 27.8034 13.5409 27.8034 13.5245H32.1049C32.3678 14.7346 33.026 15.8185 33.9721 16.5994C35.108 17.5242 36.5243 18.0192 37.9792 17.9998C39.1062 17.9996 40.2147 17.707 41.1995 17.1496V17.9742H44.0002V0H41.1983Z" fill="white"/>
<path id="Vector_2" d="M12.0472 0.000488281H0V2.82515H12.0472V0.000488281Z" fill="white"/>
</g>
<defs>
<clipPath id="clip0_294_339">
<rect width="44" height="18" fill="white"/>
</clipPath>
</defs>
</svg>
