<svg width="52" height="18" viewBox="0 0 52 18" fill="none" xmlns="http://www.w3.org/2000/svg">
<g filter="url(#filter0_i_792_1040)">
<rect width="52" height="18" rx="2" fill="url(#paint0_linear_792_1040)"/>
<rect width="52" height="18" rx="2" fill="black" fill-opacity="0.69"/>
<rect x="0.25" y="0.25" width="51.5" height="17.5" rx="1.75" stroke="url(#paint1_linear_792_1040)" stroke-width="0.5"/>
<path d="M12.9338 6.288H14.9418C15.4698 6.288 15.8778 6.352 16.1658 6.48C16.4591 6.608 16.6644 6.784 16.7818 7.008C16.8991 7.22667 16.9578 7.47467 16.9578 7.752C16.9578 8.01333 16.8964 8.248 16.7738 8.456C16.6564 8.664 16.4538 8.83733 16.1658 8.976C16.5338 9.12 16.7871 9.31467 16.9258 9.56C17.0644 9.8 17.1338 10.0613 17.1338 10.344C17.1338 10.6587 17.0644 10.9413 16.9258 11.192C16.7924 11.4427 16.5738 11.64 16.2698 11.784C15.9658 11.928 15.5604 12 15.0538 12H12.9338V6.288ZM16.2618 10.344C16.2618 10.0293 16.1684 9.78933 15.9818 9.624C15.7951 9.45867 15.4858 9.376 15.0538 9.376H13.7898V11.296H15.0058C15.3311 11.296 15.5844 11.2587 15.7658 11.184C15.9471 11.104 16.0751 10.9947 16.1498 10.856C16.2244 10.712 16.2618 10.5413 16.2618 10.344ZM16.1018 7.808C16.1018 7.52533 16.0084 7.32 15.8218 7.192C15.6351 7.05867 15.3204 6.992 14.8778 6.992H13.7898V8.672H14.9818C15.3764 8.672 15.6618 8.6 15.8378 8.456C16.0138 8.30667 16.1018 8.09067 16.1018 7.808ZM17.779 11.328C17.9976 11.136 18.2216 10.9387 18.451 10.736C18.6856 10.5333 18.915 10.336 19.139 10.144C19.475 9.85067 19.7496 9.59467 19.963 9.376C20.1816 9.152 20.3443 8.93333 20.451 8.72C20.5576 8.50667 20.611 8.27467 20.611 8.024C20.611 7.70933 20.5283 7.472 20.363 7.312C20.1976 7.14667 19.9656 7.064 19.667 7.064C19.3096 7.064 19.051 7.14133 18.891 7.296C18.731 7.45067 18.6056 7.68533 18.515 8L17.723 7.888C17.7816 7.616 17.883 7.36 18.027 7.12C18.171 6.88 18.3763 6.688 18.643 6.544C18.915 6.39467 19.2643 6.32 19.691 6.32C20.267 6.32 20.7096 6.472 21.019 6.776C21.3283 7.07467 21.483 7.46667 21.483 7.952C21.483 8.256 21.427 8.53867 21.315 8.8C21.203 9.056 21.0296 9.31467 20.795 9.576C20.5656 9.83733 20.2643 10.1307 19.891 10.456C19.7576 10.5733 19.6136 10.6987 19.459 10.832C19.3043 10.96 19.1336 11.1013 18.947 11.256H21.547L21.435 12H17.779V11.328ZM23.879 9.16C23.879 8.51467 23.991 7.968 24.215 7.52C24.439 7.072 24.7456 6.73067 25.135 6.496C25.5243 6.26133 25.9696 6.144 26.471 6.144C26.9456 6.144 27.335 6.224 27.639 6.384C27.9483 6.53867 28.191 6.75733 28.367 7.04C28.5483 7.32267 28.6763 7.656 28.751 8.04L27.879 8.176C27.7883 7.78133 27.639 7.472 27.431 7.248C27.2283 7.024 26.9056 6.912 26.463 6.912C26.111 6.912 25.8096 7.00533 25.559 7.192C25.3136 7.37333 25.127 7.632 24.999 7.968C24.871 8.29867 24.807 8.69067 24.807 9.144C24.807 9.82133 24.951 10.3627 25.239 10.768C25.5323 11.1733 25.9456 11.376 26.479 11.376C26.8043 11.376 27.0656 11.3227 27.263 11.216C27.4603 11.104 27.6096 10.952 27.711 10.76C27.8176 10.5627 27.8896 10.336 27.927 10.08H28.831C28.7936 10.48 28.6816 10.8347 28.495 11.144C28.3083 11.4533 28.047 11.6987 27.711 11.88C27.375 12.056 26.959 12.144 26.463 12.144C25.9296 12.144 25.4683 12.0267 25.079 11.792C24.695 11.5573 24.399 11.2187 24.191 10.776C23.983 10.328 23.879 9.78933 23.879 9.16ZM29.6219 6.288H31.5819C32.1419 6.288 32.5766 6.36533 32.8859 6.52C33.2006 6.67467 33.4192 6.88267 33.5419 7.144C33.6646 7.40533 33.7259 7.69867 33.7259 8.024C33.7259 8.36533 33.6619 8.67467 33.5339 8.952C33.4059 9.22933 33.1872 9.45067 32.8779 9.616C32.5686 9.776 32.1366 9.856 31.5819 9.856H30.4939V12H29.6219V6.288ZM32.8619 8.048C32.8619 7.81333 32.8246 7.62133 32.7499 7.472C32.6752 7.32267 32.5419 7.21067 32.3499 7.136C32.1632 7.06133 31.9019 7.024 31.5659 7.024H30.4939V9.12H31.5739C31.9206 9.12 32.1846 9.07733 32.3659 8.992C32.5526 8.90667 32.6806 8.784 32.7499 8.624C32.8246 8.45867 32.8619 8.26667 32.8619 8.048ZM34.5166 6.288H36.5646C37.4179 6.288 38.0819 6.52267 38.5566 6.992C39.0313 7.456 39.2686 8.16 39.2686 9.104C39.2686 10.0587 39.0153 10.7813 38.5086 11.272C38.0019 11.7573 37.3033 12 36.4126 12H34.5166V6.288ZM38.3486 9.12C38.3486 8.45867 38.2073 7.94667 37.9246 7.584C37.6473 7.22133 37.1966 7.04 36.5726 7.04H35.3966V11.24H36.4446C37.1059 11.24 37.5886 11.0533 37.8926 10.68C38.1966 10.3067 38.3486 9.78667 38.3486 9.12Z" fill="#E6E6E6"/>
</g>
<defs>
<filter id="filter0_i_792_1040" x="0" y="0" width="52" height="22" filterUnits="userSpaceOnUse" color-interpolation-filters="sRGB">
<feFlood flood-opacity="0" result="BackgroundImageFix"/>
<feBlend mode="normal" in="SourceGraphic" in2="BackgroundImageFix" result="shape"/>
<feColorMatrix in="SourceAlpha" type="matrix" values="0 0 0 0 0 0 0 0 0 0 0 0 0 0 0 0 0 0 127 0" result="hardAlpha"/>
<feOffset dy="4"/>
<feGaussianBlur stdDeviation="9.45"/>
<feComposite in2="hardAlpha" operator="arithmetic" k2="-1" k3="1"/>
<feColorMatrix type="matrix" values="0 0 0 0 1 0 0 0 0 1 0 0 0 0 1 0 0 0 0.06 0"/>
<feBlend mode="normal" in2="shape" result="effect1_innerShadow_792_1040"/>
</filter>
<linearGradient id="paint0_linear_792_1040" x1="26" y1="0" x2="26" y2="18" gradientUnits="userSpaceOnUse">
<stop stop-color="#181820"/>
<stop offset="1" stop-color="#3A3947"/>
</linearGradient>
<linearGradient id="paint1_linear_792_1040" x1="-4.73947e-07" y1="0.446026" x2="52" y2="18" gradientUnits="userSpaceOnUse">
<stop stop-color="#95ECB0"/>
<stop offset="1" stop-color="#F3F98A"/>
</linearGradient>
</defs>
</svg>
