<svg width="52" height="18" viewBox="0 0 52 18" fill="none" xmlns="http://www.w3.org/2000/svg">
<g filter="url(#filter0_i_792_1034)">
<rect width="52" height="18" rx="2" fill="url(#paint0_linear_792_1034)"/>
<rect width="52" height="18" rx="2" fill="black" fill-opacity="0.69"/>
<rect x="0.25" y="0.25" width="51.5" height="17.5" rx="1.75" stroke="url(#paint1_linear_792_1034)" stroke-width="0.5"/>
<path d="M17.2132 6.288H19.2212C19.7492 6.288 20.1572 6.352 20.4452 6.48C20.7385 6.608 20.9438 6.784 21.0612 7.008C21.1785 7.22667 21.2372 7.47467 21.2372 7.752C21.2372 8.01333 21.1758 8.248 21.0532 8.456C20.9358 8.664 20.7332 8.83733 20.4452 8.976C20.8132 9.12 21.0665 9.31467 21.2052 9.56C21.3438 9.8 21.4132 10.0613 21.4132 10.344C21.4132 10.6587 21.3438 10.9413 21.2052 11.192C21.0718 11.4427 20.8532 11.64 20.5492 11.784C20.2452 11.928 19.8398 12 19.3332 12H17.2132V6.288ZM20.5412 10.344C20.5412 10.0293 20.4478 9.78933 20.2612 9.624C20.0745 9.45867 19.7652 9.376 19.3332 9.376H18.0692V11.296H19.2852C19.6105 11.296 19.8638 11.2587 20.0452 11.184C20.2265 11.104 20.3545 10.9947 20.4292 10.856C20.5038 10.712 20.5412 10.5413 20.5412 10.344ZM20.3812 7.808C20.3812 7.52533 20.2878 7.32 20.1012 7.192C19.9145 7.05867 19.5998 6.992 19.1572 6.992H18.0692V8.672H19.2612C19.6558 8.672 19.9412 8.6 20.1172 8.456C20.2932 8.30667 20.3812 8.09067 20.3812 7.808ZM24.9783 10.424C24.9783 10.088 24.885 9.848 24.6983 9.704C24.517 9.56 24.2637 9.488 23.9383 9.488H23.3463V8.776H23.9623C24.245 8.776 24.4637 8.69867 24.6183 8.544C24.7783 8.38933 24.8583 8.168 24.8583 7.88C24.8583 7.61333 24.7757 7.41067 24.6103 7.272C24.4503 7.128 24.2103 7.056 23.8903 7.056C23.5597 7.056 23.3117 7.128 23.1463 7.272C22.9863 7.41067 22.8637 7.62933 22.7783 7.928L21.9943 7.824C22.0423 7.55733 22.1357 7.30933 22.2743 7.08C22.4183 6.85067 22.6237 6.66667 22.8903 6.528C23.157 6.38933 23.501 6.32 23.9223 6.32C24.3223 6.32 24.653 6.384 24.9143 6.512C25.181 6.64 25.3783 6.81333 25.5063 7.032C25.6397 7.25067 25.7063 7.496 25.7063 7.768C25.7063 8.07733 25.6397 8.33867 25.5063 8.552C25.3783 8.76 25.1863 8.928 24.9303 9.056C25.2397 9.184 25.4663 9.36533 25.6103 9.6C25.7597 9.82933 25.8343 10.1013 25.8343 10.416C25.8343 10.752 25.7623 11.0507 25.6183 11.312C25.4797 11.568 25.269 11.7707 24.9863 11.92C24.709 12.0693 24.357 12.144 23.9303 12.144C23.557 12.144 23.2423 12.096 22.9863 12C22.7357 11.8987 22.533 11.7653 22.3783 11.6C22.229 11.4293 22.1197 11.2427 22.0503 11.04C21.9863 10.832 21.949 10.624 21.9383 10.416H22.7623C22.7997 10.752 22.9037 11.0027 23.0743 11.168C23.245 11.3333 23.525 11.416 23.9143 11.416C24.261 11.416 24.525 11.3333 24.7063 11.168C24.8877 10.9973 24.9783 10.7493 24.9783 10.424ZM28.1583 9.16C28.1583 8.51467 28.2703 7.968 28.4943 7.52C28.7183 7.072 29.025 6.73067 29.4143 6.496C29.8037 6.26133 30.249 6.144 30.7503 6.144C31.225 6.144 31.6143 6.224 31.9183 6.384C32.2277 6.53867 32.4703 6.75733 32.6463 7.04C32.8277 7.32267 32.9557 7.656 33.0303 8.04L32.1583 8.176C32.0677 7.78133 31.9183 7.472 31.7103 7.248C31.5077 7.024 31.185 6.912 30.7423 6.912C30.3903 6.912 30.089 7.00533 29.8383 7.192C29.593 7.37333 29.4063 7.632 29.2783 7.968C29.1503 8.29867 29.0863 8.69067 29.0863 9.144C29.0863 9.82133 29.2303 10.3627 29.5183 10.768C29.8117 11.1733 30.225 11.376 30.7583 11.376C31.0837 11.376 31.345 11.3227 31.5423 11.216C31.7397 11.104 31.889 10.952 31.9903 10.76C32.097 10.5627 32.169 10.336 32.2063 10.08H33.1103C33.073 10.48 32.961 10.8347 32.7743 11.144C32.5877 11.4533 32.3263 11.6987 31.9903 11.88C31.6543 12.056 31.2383 12.144 30.7423 12.144C30.209 12.144 29.7477 12.0267 29.3583 11.792C28.9743 11.5573 28.6783 11.2187 28.4703 10.776C28.2623 10.328 28.1583 9.78933 28.1583 9.16ZM33.9013 6.288H34.7893V12H33.9013V6.288Z" fill="#E6E6E6"/>
</g>
<defs>
<filter id="filter0_i_792_1034" x="0" y="0" width="52" height="22" filterUnits="userSpaceOnUse" color-interpolation-filters="sRGB">
<feFlood flood-opacity="0" result="BackgroundImageFix"/>
<feBlend mode="normal" in="SourceGraphic" in2="BackgroundImageFix" result="shape"/>
<feColorMatrix in="SourceAlpha" type="matrix" values="0 0 0 0 0 0 0 0 0 0 0 0 0 0 0 0 0 0 127 0" result="hardAlpha"/>
<feOffset dy="4"/>
<feGaussianBlur stdDeviation="9.45"/>
<feComposite in2="hardAlpha" operator="arithmetic" k2="-1" k3="1"/>
<feColorMatrix type="matrix" values="0 0 0 0 1 0 0 0 0 1 0 0 0 0 1 0 0 0 0.06 0"/>
<feBlend mode="normal" in2="shape" result="effect1_innerShadow_792_1034"/>
</filter>
<linearGradient id="paint0_linear_792_1034" x1="26" y1="0" x2="26" y2="18" gradientUnits="userSpaceOnUse">
<stop stop-color="#181820"/>
<stop offset="1" stop-color="#3A3947"/>
</linearGradient>
<linearGradient id="paint1_linear_792_1034" x1="-4.73947e-07" y1="0.446026" x2="52" y2="18" gradientUnits="userSpaceOnUse">
<stop stop-color="#F6BA98"/>
<stop offset="0.5" stop-color="#EB806D"/>
<stop offset="1" stop-color="#C86884"/>
</linearGradient>
</defs>
</svg>
