<svg width="52" height="18" viewBox="0 0 52 18" fill="none" xmlns="http://www.w3.org/2000/svg">
<g filter="url(#filter0_i_792_1054)">
<rect width="52" height="18" rx="2" fill="url(#paint0_linear_792_1054)"/>
<rect width="52" height="18" rx="2" fill="black" fill-opacity="0.69"/>
<rect x="0.25" y="0.25" width="51.5" height="17.5" rx="1.75" stroke="url(#paint1_linear_792_1054)" stroke-width="0.5"/>
<path d="M6.78316 6.288H8.79116C9.31916 6.288 9.72716 6.352 10.0152 6.48C10.3085 6.608 10.5138 6.784 10.6312 7.008C10.7485 7.22667 10.8072 7.47467 10.8072 7.752C10.8072 8.01333 10.7458 8.248 10.6232 8.456C10.5058 8.664 10.3032 8.83733 10.0152 8.976C10.3832 9.12 10.6365 9.31467 10.7752 9.56C10.9138 9.8 10.9832 10.0613 10.9832 10.344C10.9832 10.6587 10.9138 10.9413 10.7752 11.192C10.6418 11.4427 10.4232 11.64 10.1192 11.784C9.81516 11.928 9.40982 12 8.90316 12H6.78316V6.288ZM10.1112 10.344C10.1112 10.0293 10.0178 9.78933 9.83116 9.624C9.64449 9.45867 9.33516 9.376 8.90316 9.376H7.63916V11.296H8.85516C9.18049 11.296 9.43382 11.2587 9.61516 11.184C9.79649 11.104 9.92449 10.9947 9.99916 10.856C10.0738 10.712 10.1112 10.5413 10.1112 10.344ZM9.95116 7.808C9.95116 7.52533 9.85782 7.32 9.67116 7.192C9.48449 7.05867 9.16982 6.992 8.72716 6.992H7.63916V8.672H8.83116C9.22582 8.672 9.51116 8.6 9.68716 8.456C9.86316 8.30667 9.95116 8.09067 9.95116 7.808ZM14.5483 10.424C14.5483 10.088 14.455 9.848 14.2683 9.704C14.087 9.56 13.8337 9.488 13.5083 9.488H12.9163V8.776H13.5323C13.815 8.776 14.0337 8.69867 14.1883 8.544C14.3483 8.38933 14.4283 8.168 14.4283 7.88C14.4283 7.61333 14.3457 7.41067 14.1803 7.272C14.0203 7.128 13.7803 7.056 13.4603 7.056C13.1297 7.056 12.8817 7.128 12.7163 7.272C12.5563 7.41067 12.4337 7.62933 12.3483 7.928L11.5643 7.824C11.6123 7.55733 11.7057 7.30933 11.8443 7.08C11.9883 6.85067 12.1937 6.66667 12.4603 6.528C12.727 6.38933 13.071 6.32 13.4923 6.32C13.8923 6.32 14.223 6.384 14.4843 6.512C14.751 6.64 14.9483 6.81333 15.0763 7.032C15.2097 7.25067 15.2763 7.496 15.2763 7.768C15.2763 8.07733 15.2097 8.33867 15.0763 8.552C14.9483 8.76 14.7563 8.928 14.5003 9.056C14.8097 9.184 15.0363 9.36533 15.1803 9.6C15.3297 9.82933 15.4043 10.1013 15.4043 10.416C15.4043 10.752 15.3323 11.0507 15.1883 11.312C15.0497 11.568 14.839 11.7707 14.5563 11.92C14.279 12.0693 13.927 12.144 13.5003 12.144C13.127 12.144 12.8123 12.096 12.5563 12C12.3057 11.8987 12.103 11.7653 11.9483 11.6C11.799 11.4293 11.6897 11.2427 11.6203 11.04C11.5563 10.832 11.519 10.624 11.5083 10.416H12.3323C12.3697 10.752 12.4737 11.0027 12.6443 11.168C12.815 11.3333 13.095 11.416 13.4843 11.416C13.831 11.416 14.095 11.3333 14.2763 11.168C14.4577 10.9973 14.5483 10.7493 14.5483 10.424ZM17.9203 6.288H19.9683C20.8217 6.288 21.4857 6.52267 21.9603 6.992C22.435 7.456 22.6723 8.16 22.6723 9.104C22.6723 10.0587 22.419 10.7813 21.9123 11.272C21.4057 11.7573 20.707 12 19.8163 12H17.9203V6.288ZM21.7523 9.12C21.7523 8.45867 21.611 7.94667 21.3283 7.584C21.051 7.22133 20.6003 7.04 19.9763 7.04H18.8003V11.24H19.8483C20.5097 11.24 20.9923 11.0533 21.2963 10.68C21.6003 10.3067 21.7523 9.78667 21.7523 9.12ZM23.526 6.288H27.302V7.04H24.414V8.688H27.142V9.44H24.414V11.248H27.454L27.334 12H23.526V6.288ZM31.4588 10.464C31.4588 10.32 31.4322 10.1893 31.3788 10.072C31.3308 9.94933 31.2375 9.84533 31.0988 9.76C30.9602 9.66933 30.7575 9.6 30.4908 9.552L29.7628 9.424C29.3788 9.35467 29.0535 9.25867 28.7868 9.136C28.5255 9.008 28.3255 8.83467 28.1868 8.616C28.0482 8.392 27.9788 8.10667 27.9788 7.76C27.9788 7.40267 28.0722 7.104 28.2588 6.864C28.4455 6.624 28.7015 6.44533 29.0268 6.328C29.3522 6.20533 29.7202 6.144 30.1308 6.144C30.6322 6.144 31.0295 6.216 31.3228 6.36C31.6215 6.49867 31.8455 6.68267 31.9948 6.912C32.1442 7.14133 32.2428 7.392 32.2908 7.664L31.4508 7.8C31.3708 7.496 31.2375 7.26667 31.0508 7.112C30.8695 6.952 30.5655 6.872 30.1388 6.872C29.6642 6.872 29.3335 6.95467 29.1468 7.12C28.9602 7.28 28.8668 7.48 28.8668 7.72C28.8668 7.976 28.9362 8.17067 29.0748 8.304C29.2188 8.432 29.4748 8.53067 29.8428 8.6L30.6348 8.752C31.2375 8.864 31.6775 9.05067 31.9548 9.312C32.2375 9.57333 32.3788 9.95467 32.3788 10.456C32.3788 10.776 32.2988 11.064 32.1388 11.32C31.9788 11.5707 31.7388 11.7707 31.4188 11.92C31.1042 12.0693 30.7068 12.144 30.2268 12.144C29.5388 12.144 28.9842 12 28.5628 11.712C28.1468 11.424 27.9095 10.9653 27.8508 10.336H28.7308C28.7895 10.7093 28.9388 10.9813 29.1788 11.152C29.4188 11.3227 29.7735 11.408 30.2428 11.408C30.5522 11.408 30.7948 11.3653 30.9708 11.28C31.1468 11.1947 31.2722 11.08 31.3468 10.936C31.4215 10.792 31.4588 10.6347 31.4588 10.464ZM33.206 6.288H34.094V12H33.206V6.288ZM34.9555 9.152C34.9555 8.56533 35.0569 8.04533 35.2595 7.592C35.4622 7.13867 35.7582 6.784 36.1475 6.528C36.5369 6.272 37.0089 6.144 37.5635 6.144C38.2195 6.144 38.7235 6.296 39.0755 6.6C39.4329 6.904 39.6675 7.30933 39.7795 7.816L38.9075 7.944C38.8275 7.62933 38.6889 7.376 38.4915 7.184C38.2995 6.992 37.9902 6.896 37.5635 6.896C37.1742 6.896 36.8542 6.99467 36.6035 7.192C36.3582 7.384 36.1742 7.65067 36.0515 7.992C35.9342 8.328 35.8755 8.712 35.8755 9.144C35.8755 9.82667 36.0195 10.3707 36.3075 10.776C36.5955 11.1813 37.0462 11.384 37.6595 11.384C37.9262 11.384 38.1769 11.352 38.4115 11.288C38.6515 11.224 38.8649 11.1253 39.0515 10.992V9.752H37.6995V9.008H39.8755V11.352C39.5875 11.6133 39.2409 11.8107 38.8355 11.944C38.4355 12.0773 38.0382 12.144 37.6435 12.144C36.7902 12.144 36.1289 11.88 35.6595 11.352C35.1902 10.824 34.9555 10.0907 34.9555 9.152ZM40.7688 6.288H41.6168L44.3688 10.592V6.288H45.2168V12H44.4008L41.6168 7.704V12H40.7688V6.288Z" fill="#E6E6E6"/>
</g>
<defs>
<filter id="filter0_i_792_1054" x="0" y="0" width="52" height="22" filterUnits="userSpaceOnUse" color-interpolation-filters="sRGB">
<feFlood flood-opacity="0" result="BackgroundImageFix"/>
<feBlend mode="normal" in="SourceGraphic" in2="BackgroundImageFix" result="shape"/>
<feColorMatrix in="SourceAlpha" type="matrix" values="0 0 0 0 0 0 0 0 0 0 0 0 0 0 0 0 0 0 127 0" result="hardAlpha"/>
<feOffset dy="4"/>
<feGaussianBlur stdDeviation="9.45"/>
<feComposite in2="hardAlpha" operator="arithmetic" k2="-1" k3="1"/>
<feColorMatrix type="matrix" values="0 0 0 0 1 0 0 0 0 1 0 0 0 0 1 0 0 0 0.06 0"/>
<feBlend mode="normal" in2="shape" result="effect1_innerShadow_792_1054"/>
</filter>
<linearGradient id="paint0_linear_792_1054" x1="26" y1="0" x2="26" y2="18" gradientUnits="userSpaceOnUse">
<stop stop-color="#181820"/>
<stop offset="1" stop-color="#3A3947"/>
</linearGradient>
<linearGradient id="paint1_linear_792_1054" x1="-4.73947e-07" y1="0.446026" x2="52" y2="18" gradientUnits="userSpaceOnUse">
<stop stop-color="#F8F9C7"/>
<stop offset="0.5" stop-color="#A6A6DE"/>
<stop offset="1" stop-color="#ED90CF"/>
</linearGradient>
</defs>
</svg>
