<svg width="52" height="18" viewBox="0 0 52 18" fill="none" xmlns="http://www.w3.org/2000/svg">
<g filter="url(#filter0_i_792_1028)">
<rect width="52" height="18" rx="2" fill="url(#paint0_linear_792_1028)"/>
<rect width="52" height="18" rx="2" fill="black" fill-opacity="0.69"/>
<rect x="0.25" y="0.25" width="51.5" height="17.5" rx="1.75" stroke="url(#paint1_linear_792_1028)" stroke-width="0.5"/>
<path d="M5.17378 6.288H7.18178C7.70978 6.288 8.11778 6.352 8.40578 6.48C8.69911 6.608 8.90445 6.784 9.02178 7.008C9.13911 7.22667 9.19778 7.47467 9.19778 7.752C9.19778 8.01333 9.13645 8.248 9.01378 8.456C8.89645 8.664 8.69378 8.83733 8.40578 8.976C8.77378 9.12 9.02711 9.31467 9.16578 9.56C9.30445 9.8 9.37378 10.0613 9.37378 10.344C9.37378 10.6587 9.30445 10.9413 9.16578 11.192C9.03245 11.4427 8.81378 11.64 8.50978 11.784C8.20578 11.928 7.80045 12 7.29378 12H5.17378V6.288ZM8.50178 10.344C8.50178 10.0293 8.40845 9.78933 8.22178 9.624C8.03511 9.45867 7.72578 9.376 7.29378 9.376H6.02978V11.296H7.24578C7.57111 11.296 7.82445 11.2587 8.00578 11.184C8.18711 11.104 8.31511 10.9947 8.38978 10.856C8.46445 10.712 8.50178 10.5413 8.50178 10.344ZM8.34178 7.808C8.34178 7.52533 8.24845 7.32 8.06178 7.192C7.87511 7.05867 7.56045 6.992 7.11778 6.992H6.02978V8.672H7.22178C7.61645 8.672 7.90178 8.6 8.07778 8.456C8.25378 8.30667 8.34178 8.09067 8.34178 7.808ZM12.939 10.424C12.939 10.088 12.8456 9.848 12.659 9.704C12.4776 9.56 12.2243 9.488 11.899 9.488H11.307V8.776H11.923C12.2056 8.776 12.4243 8.69867 12.579 8.544C12.739 8.38933 12.819 8.168 12.819 7.88C12.819 7.61333 12.7363 7.41067 12.571 7.272C12.411 7.128 12.171 7.056 11.851 7.056C11.5203 7.056 11.2723 7.128 11.107 7.272C10.947 7.41067 10.8243 7.62933 10.739 7.928L9.95497 7.824C10.003 7.55733 10.0963 7.30933 10.235 7.08C10.379 6.85067 10.5843 6.66667 10.851 6.528C11.1176 6.38933 11.4616 6.32 11.883 6.32C12.283 6.32 12.6136 6.384 12.875 6.512C13.1416 6.64 13.339 6.81333 13.467 7.032C13.6003 7.25067 13.667 7.496 13.667 7.768C13.667 8.07733 13.6003 8.33867 13.467 8.552C13.339 8.76 13.147 8.928 12.891 9.056C13.2003 9.184 13.427 9.36533 13.571 9.6C13.7203 9.82933 13.795 10.1013 13.795 10.416C13.795 10.752 13.723 11.0507 13.579 11.312C13.4403 11.568 13.2296 11.7707 12.947 11.92C12.6696 12.0693 12.3176 12.144 11.891 12.144C11.5176 12.144 11.203 12.096 10.947 12C10.6963 11.8987 10.4936 11.7653 10.339 11.6C10.1896 11.4293 10.0803 11.2427 10.011 11.04C9.94697 10.832 9.90963 10.624 9.89897 10.416H10.723C10.7603 10.752 10.8643 11.0027 11.035 11.168C11.2056 11.3333 11.4856 11.416 11.875 11.416C12.2216 11.416 12.4856 11.3333 12.667 11.168C12.8483 10.9973 12.939 10.7493 12.939 10.424ZM16.311 6.288H17.391L19.119 10.952L20.879 6.288H21.927V12H21.103V7.688L19.447 12H18.751L17.119 7.696V12H16.311V6.288ZM26.2911 10.504H23.9311L23.3791 12H22.4671L24.6431 6.288H25.6191L27.7871 12H26.8431L26.2911 10.504ZM25.1071 7.192L24.1791 9.752H26.0351L25.1071 7.192ZM28.3347 6.288H30.2867C30.7081 6.288 31.0547 6.33333 31.3267 6.424C31.6041 6.51467 31.8227 6.64 31.9827 6.8C32.1427 6.95467 32.2547 7.13067 32.3187 7.328C32.3881 7.52533 32.4227 7.728 32.4227 7.936C32.4227 8.29867 32.3454 8.61067 32.1907 8.872C32.0414 9.13333 31.8014 9.33867 31.4707 9.488L32.6627 12H31.6947L30.6387 9.688C30.5747 9.69333 30.5081 9.69867 30.4387 9.704C30.3747 9.704 30.3134 9.704 30.2547 9.704H29.1987V12H28.3347V6.288ZM31.5427 7.968C31.5427 7.76533 31.5054 7.592 31.4307 7.448C31.3561 7.304 31.2227 7.19467 31.0307 7.12C30.8441 7.04533 30.5827 7.008 30.2467 7.008H29.1987V8.976H30.3347C30.6494 8.976 30.8947 8.936 31.0707 8.856C31.2467 8.77067 31.3694 8.65333 31.4387 8.504C31.5081 8.35467 31.5427 8.176 31.5427 7.968ZM33.3075 6.288H34.2035V8.928L36.7235 6.288H37.7075L35.7075 8.424L37.9155 12H36.9075L35.0755 9.024L34.2035 9.928V12H33.3075V6.288ZM38.46 6.288H42.236V7.04H39.348V8.688H42.076V9.44H39.348V11.248H42.388L42.268 12H38.46V6.288ZM44.5436 7.072H42.6956V6.288H47.2796V7.072H45.4316V12H44.5436V7.072Z" fill="#E6E6E6"/>
</g>
<defs>
<filter id="filter0_i_792_1028" x="0" y="0" width="52" height="22" filterUnits="userSpaceOnUse" color-interpolation-filters="sRGB">
<feFlood flood-opacity="0" result="BackgroundImageFix"/>
<feBlend mode="normal" in="SourceGraphic" in2="BackgroundImageFix" result="shape"/>
<feColorMatrix in="SourceAlpha" type="matrix" values="0 0 0 0 0 0 0 0 0 0 0 0 0 0 0 0 0 0 127 0" result="hardAlpha"/>
<feOffset dy="4"/>
<feGaussianBlur stdDeviation="9.45"/>
<feComposite in2="hardAlpha" operator="arithmetic" k2="-1" k3="1"/>
<feColorMatrix type="matrix" values="0 0 0 0 1 0 0 0 0 1 0 0 0 0 1 0 0 0 0.06 0"/>
<feBlend mode="normal" in2="shape" result="effect1_innerShadow_792_1028"/>
</filter>
<linearGradient id="paint0_linear_792_1028" x1="26" y1="0" x2="26" y2="18" gradientUnits="userSpaceOnUse">
<stop stop-color="#181820"/>
<stop offset="1" stop-color="#3A3947"/>
</linearGradient>
<linearGradient id="paint1_linear_792_1028" x1="-4.73947e-07" y1="0.446026" x2="52" y2="18" gradientUnits="userSpaceOnUse">
<stop stop-color="#F5A7AF"/>
<stop offset="0.5" stop-color="#F86FA4"/>
<stop offset="1" stop-color="#CD70B9"/>
</linearGradient>
</defs>
</svg>
