<svg width="52" height="18" viewBox="0 0 52 18" fill="none" xmlns="http://www.w3.org/2000/svg">
<g filter="url(#filter0_i_792_1046)">
<rect width="52" height="18" rx="2" fill="url(#paint0_linear_792_1046)"/>
<rect width="52" height="18" rx="2" fill="black" fill-opacity="0.69"/>
<rect x="0.25" y="0.25" width="51.5" height="17.5" rx="1.75" stroke="url(#paint1_linear_792_1046)" stroke-width="0.5"/>
<path d="M5.92769 6.288H7.00769L8.73569 10.952L10.4957 6.288H11.5437V12H10.7197V7.688L9.06369 12H8.36769L6.73569 7.696V12H5.92769V6.288ZM12.4838 11.328C12.7025 11.136 12.9265 10.9387 13.1558 10.736C13.3905 10.5333 13.6198 10.336 13.8438 10.144C14.1798 9.85067 14.4545 9.59467 14.6678 9.376C14.8865 9.152 15.0491 8.93333 15.1558 8.72C15.2625 8.50667 15.3158 8.27467 15.3158 8.024C15.3158 7.70933 15.2331 7.472 15.0678 7.312C14.9025 7.14667 14.6705 7.064 14.3718 7.064C14.0145 7.064 13.7558 7.14133 13.5958 7.296C13.4358 7.45067 13.3105 7.68533 13.2198 8L12.4278 7.888C12.4865 7.616 12.5878 7.36 12.7318 7.12C12.8758 6.88 13.0811 6.688 13.3478 6.544C13.6198 6.39467 13.9691 6.32 14.3958 6.32C14.9718 6.32 15.4145 6.472 15.7238 6.776C16.0331 7.07467 16.1878 7.46667 16.1878 7.952C16.1878 8.256 16.1318 8.53867 16.0198 8.8C15.9078 9.056 15.7345 9.31467 15.4998 9.576C15.2705 9.83733 14.9691 10.1307 14.5958 10.456C14.4625 10.5733 14.3185 10.6987 14.1638 10.832C14.0091 10.96 13.8385 11.1013 13.6518 11.256H16.2518L16.1398 12H12.4838V11.328ZM18.7758 6.288H20.8238C21.6771 6.288 22.3411 6.52267 22.8158 6.992C23.2905 7.456 23.5278 8.16 23.5278 9.104C23.5278 10.0587 23.2745 10.7813 22.7678 11.272C22.2611 11.7573 21.5625 12 20.6718 12H18.7758V6.288ZM22.6078 9.12C22.6078 8.45867 22.4665 7.94667 22.1838 7.584C21.9065 7.22133 21.4558 7.04 20.8318 7.04H19.6558V11.24H20.7038C21.3651 11.24 21.8478 11.0533 22.1518 10.68C22.4558 10.3067 22.6078 9.78667 22.6078 9.12ZM24.3814 6.288H28.1574V7.04H25.2694V8.688H27.9974V9.44H25.2694V11.248H28.3094L28.1894 12H24.3814V6.288ZM32.3143 10.464C32.3143 10.32 32.2876 10.1893 32.2343 10.072C32.1863 9.94933 32.093 9.84533 31.9543 9.76C31.8156 9.66933 31.613 9.6 31.3463 9.552L30.6183 9.424C30.2343 9.35467 29.909 9.25867 29.6423 9.136C29.381 9.008 29.181 8.83467 29.0423 8.616C28.9036 8.392 28.8343 8.10667 28.8343 7.76C28.8343 7.40267 28.9276 7.104 29.1143 6.864C29.301 6.624 29.557 6.44533 29.8823 6.328C30.2076 6.20533 30.5756 6.144 30.9863 6.144C31.4876 6.144 31.885 6.216 32.1783 6.36C32.477 6.49867 32.701 6.68267 32.8503 6.912C32.9996 7.14133 33.0983 7.392 33.1463 7.664L32.3063 7.8C32.2263 7.496 32.093 7.26667 31.9063 7.112C31.725 6.952 31.421 6.872 30.9943 6.872C30.5196 6.872 30.189 6.95467 30.0023 7.12C29.8156 7.28 29.7223 7.48 29.7223 7.72C29.7223 7.976 29.7916 8.17067 29.9303 8.304C30.0743 8.432 30.3303 8.53067 30.6983 8.6L31.4903 8.752C32.093 8.864 32.533 9.05067 32.8103 9.312C33.093 9.57333 33.2343 9.95467 33.2343 10.456C33.2343 10.776 33.1543 11.064 32.9943 11.32C32.8343 11.5707 32.5943 11.7707 32.2743 11.92C31.9596 12.0693 31.5623 12.144 31.0823 12.144C30.3943 12.144 29.8396 12 29.4183 11.712C29.0023 11.424 28.765 10.9653 28.7063 10.336H29.5863C29.645 10.7093 29.7943 10.9813 30.0343 11.152C30.2743 11.3227 30.629 11.408 31.0983 11.408C31.4076 11.408 31.6503 11.3653 31.8263 11.28C32.0023 11.1947 32.1276 11.08 32.2023 10.936C32.277 10.792 32.3143 10.6347 32.3143 10.464ZM34.0614 6.288H34.9494V12H34.0614V6.288ZM35.811 9.152C35.811 8.56533 35.9123 8.04533 36.115 7.592C36.3177 7.13867 36.6137 6.784 37.003 6.528C37.3923 6.272 37.8643 6.144 38.419 6.144C39.075 6.144 39.579 6.296 39.931 6.6C40.2883 6.904 40.523 7.30933 40.635 7.816L39.763 7.944C39.683 7.62933 39.5443 7.376 39.347 7.184C39.155 6.992 38.8457 6.896 38.419 6.896C38.0297 6.896 37.7097 6.99467 37.459 7.192C37.2137 7.384 37.0297 7.65067 36.907 7.992C36.7897 8.328 36.731 8.712 36.731 9.144C36.731 9.82667 36.875 10.3707 37.163 10.776C37.451 11.1813 37.9017 11.384 38.515 11.384C38.7817 11.384 39.0323 11.352 39.267 11.288C39.507 11.224 39.7203 11.1253 39.907 10.992V9.752H38.555V9.008H40.731V11.352C40.443 11.6133 40.0963 11.8107 39.691 11.944C39.291 12.0773 38.8937 12.144 38.499 12.144C37.6457 12.144 36.9843 11.88 36.515 11.352C36.0457 10.824 35.811 10.0907 35.811 9.152ZM41.6243 6.288H42.4723L45.2243 10.592V6.288H46.0723V12H45.2563L42.4723 7.704V12H41.6243V6.288Z" fill="#E6E6E6"/>
</g>
<defs>
<filter id="filter0_i_792_1046" x="0" y="0" width="52" height="22" filterUnits="userSpaceOnUse" color-interpolation-filters="sRGB">
<feFlood flood-opacity="0" result="BackgroundImageFix"/>
<feBlend mode="normal" in="SourceGraphic" in2="BackgroundImageFix" result="shape"/>
<feColorMatrix in="SourceAlpha" type="matrix" values="0 0 0 0 0 0 0 0 0 0 0 0 0 0 0 0 0 0 127 0" result="hardAlpha"/>
<feOffset dy="4"/>
<feGaussianBlur stdDeviation="9.45"/>
<feComposite in2="hardAlpha" operator="arithmetic" k2="-1" k3="1"/>
<feColorMatrix type="matrix" values="0 0 0 0 1 0 0 0 0 1 0 0 0 0 1 0 0 0 0.06 0"/>
<feBlend mode="normal" in2="shape" result="effect1_innerShadow_792_1046"/>
</filter>
<linearGradient id="paint0_linear_792_1046" x1="26" y1="0" x2="26" y2="18" gradientUnits="userSpaceOnUse">
<stop stop-color="#181820"/>
<stop offset="1" stop-color="#3A3947"/>
</linearGradient>
<linearGradient id="paint1_linear_792_1046" x1="-4.73947e-07" y1="0.446026" x2="52" y2="18" gradientUnits="userSpaceOnUse">
<stop stop-color="#3E3B92"/>
<stop offset="1" stop-color="#F40752"/>
</linearGradient>
</defs>
</svg>
