<svg width="52" height="18" viewBox="0 0 52 18" fill="none" xmlns="http://www.w3.org/2000/svg">
<g filter="url(#filter0_i_792_1048)">
<rect width="52" height="18" rx="2" fill="url(#paint0_linear_792_1048)"/>
<rect width="52" height="18" rx="2" fill="black" fill-opacity="0.69"/>
<rect x="0.25" y="0.25" width="51.5" height="17.5" rx="1.75" stroke="url(#paint1_linear_792_1048)" stroke-width="0.5"/>
<path d="M9.81644 6.288H10.8964L12.6244 10.952L14.3844 6.288H15.4324V12H14.6084V7.688L12.9524 12H12.2564L10.6244 7.696V12H9.81644V6.288ZM16.3726 11.328C16.5912 11.136 16.8152 10.9387 17.0446 10.736C17.2792 10.5333 17.5086 10.336 17.7326 10.144C18.0686 9.85067 18.3432 9.59467 18.5566 9.376C18.7752 9.152 18.9379 8.93333 19.0446 8.72C19.1512 8.50667 19.2046 8.27467 19.2046 8.024C19.2046 7.70933 19.1219 7.472 18.9566 7.312C18.7912 7.14667 18.5592 7.064 18.2606 7.064C17.9032 7.064 17.6446 7.14133 17.4846 7.296C17.3246 7.45067 17.1992 7.68533 17.1086 8L16.3166 7.888C16.3752 7.616 16.4766 7.36 16.6206 7.12C16.7646 6.88 16.9699 6.688 17.2366 6.544C17.5086 6.39467 17.8579 6.32 18.2846 6.32C18.8606 6.32 19.3032 6.472 19.6126 6.776C19.9219 7.07467 20.0766 7.46667 20.0766 7.952C20.0766 8.256 20.0206 8.53867 19.9086 8.8C19.7966 9.056 19.6232 9.31467 19.3886 9.576C19.1592 9.83733 18.8579 10.1307 18.4846 10.456C18.3512 10.5733 18.2072 10.6987 18.0526 10.832C17.8979 10.96 17.7272 11.1013 17.5406 11.256H20.1406L20.0286 12H16.3726V11.328ZM22.6086 9.688V6.288H23.4886V9.728C23.4886 10.2773 23.5926 10.6907 23.8006 10.968C24.0139 11.24 24.3552 11.376 24.8246 11.376C25.3046 11.376 25.6432 11.24 25.8406 10.968C26.0379 10.6907 26.1366 10.2773 26.1366 9.728V6.288H27.0246V9.72C27.0246 10.5627 26.8299 11.1787 26.4406 11.568C26.0512 11.952 25.5072 12.144 24.8086 12.144C24.0992 12.144 23.5552 11.9493 23.1766 11.56C22.7979 11.1707 22.6086 10.5467 22.6086 9.688ZM28.468 12H27.508L29.492 8.992L27.66 6.288H28.684L30.036 8.384L31.404 6.288H32.356L30.532 9.016L32.572 12H31.556L29.988 9.632L28.468 12ZM34.5775 6.128H35.4335L33.6095 12H32.7535L34.5775 6.128ZM35.8786 9.688V6.288H36.7586V9.728C36.7586 10.2773 36.8626 10.6907 37.0706 10.968C37.2839 11.24 37.6252 11.376 38.0946 11.376C38.5746 11.376 38.9132 11.24 39.1106 10.968C39.3079 10.6907 39.4066 10.2773 39.4066 9.728V6.288H40.2946V9.72C40.2946 10.5627 40.0999 11.1787 39.7106 11.568C39.3212 11.952 38.7772 12.144 38.0786 12.144C37.3692 12.144 36.8252 11.9493 36.4466 11.56C36.0679 11.1707 35.8786 10.5467 35.8786 9.688ZM41.298 6.288H42.186V12H41.298V6.288Z" fill="#E6E6E6"/>
</g>
<defs>
<filter id="filter0_i_792_1048" x="0" y="0" width="52" height="22" filterUnits="userSpaceOnUse" color-interpolation-filters="sRGB">
<feFlood flood-opacity="0" result="BackgroundImageFix"/>
<feBlend mode="normal" in="SourceGraphic" in2="BackgroundImageFix" result="shape"/>
<feColorMatrix in="SourceAlpha" type="matrix" values="0 0 0 0 0 0 0 0 0 0 0 0 0 0 0 0 0 0 127 0" result="hardAlpha"/>
<feOffset dy="4"/>
<feGaussianBlur stdDeviation="9.45"/>
<feComposite in2="hardAlpha" operator="arithmetic" k2="-1" k3="1"/>
<feColorMatrix type="matrix" values="0 0 0 0 1 0 0 0 0 1 0 0 0 0 1 0 0 0 0.06 0"/>
<feBlend mode="normal" in2="shape" result="effect1_innerShadow_792_1048"/>
</filter>
<linearGradient id="paint0_linear_792_1048" x1="26" y1="0" x2="26" y2="18" gradientUnits="userSpaceOnUse">
<stop stop-color="#181820"/>
<stop offset="1" stop-color="#3A3947"/>
</linearGradient>
<linearGradient id="paint1_linear_792_1048" x1="-4.73947e-07" y1="0.446026" x2="52" y2="18" gradientUnits="userSpaceOnUse">
<stop stop-color="#F9E7BB"/>
<stop offset="0.5" stop-color="#E97CBB"/>
<stop offset="1" stop-color="#6330B4"/>
</linearGradient>
</defs>
</svg>
