<svg width="52" height="18" viewBox="0 0 52 18" fill="none" xmlns="http://www.w3.org/2000/svg">
<g filter="url(#filter0_i_792_1056)">
<rect width="52" height="18" rx="2" fill="url(#paint0_linear_792_1056)"/>
<rect width="52" height="18" rx="2" fill="black" fill-opacity="0.69"/>
<rect x="0.25" y="0.25" width="51.5" height="17.5" rx="1.75" stroke="url(#paint1_linear_792_1056)" stroke-width="0.5"/>
<path d="M8.37894 6.288H9.45894L11.1869 10.952L12.9469 6.288H13.9949V12H13.1709V7.688L11.5149 12H10.8189L9.18694 7.696V12H8.37894V6.288ZM14.9351 11.328C15.1537 11.136 15.3777 10.9387 15.6071 10.736C15.8417 10.5333 16.0711 10.336 16.2951 10.144C16.6311 9.85067 16.9057 9.59467 17.1191 9.376C17.3377 9.152 17.5004 8.93333 17.6071 8.72C17.7137 8.50667 17.7671 8.27467 17.7671 8.024C17.7671 7.70933 17.6844 7.472 17.5191 7.312C17.3537 7.14667 17.1217 7.064 16.8231 7.064C16.4657 7.064 16.2071 7.14133 16.0471 7.296C15.8871 7.45067 15.7617 7.68533 15.6711 8L14.8791 7.888C14.9377 7.616 15.0391 7.36 15.1831 7.12C15.3271 6.88 15.5324 6.688 15.7991 6.544C16.0711 6.39467 16.4204 6.32 16.8471 6.32C17.4231 6.32 17.8657 6.472 18.1751 6.776C18.4844 7.07467 18.6391 7.46667 18.6391 7.952C18.6391 8.256 18.5831 8.53867 18.4711 8.8C18.3591 9.056 18.1857 9.31467 17.9511 9.576C17.7217 9.83733 17.4204 10.1307 17.0471 10.456C16.9137 10.5733 16.7697 10.6987 16.6151 10.832C16.4604 10.96 16.2897 11.1013 16.1031 11.256H18.7031L18.5911 12H14.9351V11.328ZM23.3391 10.944L24.9951 6.288H25.9471L23.8191 12H22.8591L20.7311 6.288H21.7151L23.3391 10.944ZM26.4968 6.288H27.3848V12H26.4968V6.288ZM28.4383 6.288H30.4863C31.3396 6.288 32.0036 6.52267 32.4783 6.992C32.953 7.456 33.1903 8.16 33.1903 9.104C33.1903 10.0587 32.937 10.7813 32.4303 11.272C31.9236 11.7573 31.225 12 30.3343 12H28.4383V6.288ZM32.2703 9.12C32.2703 8.45867 32.129 7.94667 31.8463 7.584C31.569 7.22133 31.1183 7.04 30.4943 7.04H29.3183V11.24H30.3663C31.0276 11.24 31.5103 11.0533 31.8143 10.68C32.1183 10.3067 32.2703 9.78667 32.2703 9.12ZM34.0439 6.288H37.8199V7.04H34.9319V8.688H37.6599V9.44H34.9319V11.248H37.9719L37.8519 12H34.0439V6.288ZM38.4888 9.152C38.4888 8.512 38.6008 7.968 38.8248 7.52C39.0541 7.072 39.3688 6.73067 39.7688 6.496C40.1688 6.26133 40.6328 6.144 41.1608 6.144C41.6941 6.144 42.1581 6.26133 42.5528 6.496C42.9528 6.72533 43.2621 7.06133 43.4808 7.504C43.7048 7.94667 43.8168 8.488 43.8168 9.128C43.8168 9.768 43.7075 10.3147 43.4888 10.768C43.2701 11.216 42.9608 11.5573 42.5608 11.792C42.1608 12.0267 41.6915 12.144 41.1528 12.144C40.6248 12.144 40.1608 12.0293 39.7608 11.8C39.3608 11.5653 39.0488 11.2267 38.8248 10.784C38.6008 10.336 38.4888 9.792 38.4888 9.152ZM39.4088 9.144C39.4088 9.82667 39.5528 10.3707 39.8408 10.776C40.1341 11.176 40.5715 11.376 41.1528 11.376C41.7235 11.376 42.1555 11.176 42.4488 10.776C42.7475 10.3707 42.8968 9.82667 42.8968 9.144C42.8968 8.46667 42.7475 7.92533 42.4488 7.52C42.1555 7.11467 41.7235 6.912 41.1528 6.912C40.5715 6.912 40.1341 7.11467 39.8408 7.52C39.5528 7.92533 39.4088 8.46667 39.4088 9.144Z" fill="#E6E6E6"/>
</g>
<defs>
<filter id="filter0_i_792_1056" x="0" y="0" width="52" height="22" filterUnits="userSpaceOnUse" color-interpolation-filters="sRGB">
<feFlood flood-opacity="0" result="BackgroundImageFix"/>
<feBlend mode="normal" in="SourceGraphic" in2="BackgroundImageFix" result="shape"/>
<feColorMatrix in="SourceAlpha" type="matrix" values="0 0 0 0 0 0 0 0 0 0 0 0 0 0 0 0 0 0 127 0" result="hardAlpha"/>
<feOffset dy="4"/>
<feGaussianBlur stdDeviation="9.45"/>
<feComposite in2="hardAlpha" operator="arithmetic" k2="-1" k3="1"/>
<feColorMatrix type="matrix" values="0 0 0 0 1 0 0 0 0 1 0 0 0 0 1 0 0 0 0.06 0"/>
<feBlend mode="normal" in2="shape" result="effect1_innerShadow_792_1056"/>
</filter>
<linearGradient id="paint0_linear_792_1056" x1="26" y1="0" x2="26" y2="18" gradientUnits="userSpaceOnUse">
<stop stop-color="#181820"/>
<stop offset="1" stop-color="#3A3947"/>
</linearGradient>
<linearGradient id="paint1_linear_792_1056" x1="-4.73947e-07" y1="0.446026" x2="52" y2="18" gradientUnits="userSpaceOnUse">
<stop stop-color="#1CDCE8"/>
<stop offset="0.5" stop-color="#BB77ED"/>
<stop offset="1" stop-color="#F34A62"/>
</linearGradient>
</defs>
</svg>
