<svg width="52" height="18" viewBox="0 0 52 18" fill="none" xmlns="http://www.w3.org/2000/svg">
<g filter="url(#filter0_i_792_1060)">
<rect width="52" height="18" rx="2" fill="url(#paint0_linear_792_1060)"/>
<rect width="52" height="18" rx="2" fill="black" fill-opacity="0.69"/>
<rect x="0.25" y="0.25" width="51.5" height="17.5" rx="1.75" stroke="url(#paint1_linear_792_1060)" stroke-width="0.5"/>
<path d="M7.28519 6.288H9.23719C9.65852 6.288 10.0052 6.33333 10.2772 6.424C10.5545 6.51467 10.7732 6.64 10.9332 6.8C11.0932 6.95467 11.2052 7.13067 11.2692 7.328C11.3385 7.52533 11.3732 7.728 11.3732 7.936C11.3732 8.29867 11.2959 8.61067 11.1412 8.872C10.9919 9.13333 10.7519 9.33867 10.4212 9.488L11.6132 12H10.6452L9.58919 9.688C9.52519 9.69333 9.45852 9.69867 9.38919 9.704C9.32519 9.704 9.26385 9.704 9.20519 9.704H8.14919V12H7.28519V6.288ZM10.4932 7.968C10.4932 7.76533 10.4559 7.592 10.3812 7.448C10.3065 7.304 10.1732 7.19467 9.98119 7.12C9.79452 7.04533 9.53319 7.008 9.19719 7.008H8.14919V8.976H9.28519C9.59985 8.976 9.84519 8.936 10.0212 8.856C10.1972 8.77067 10.3199 8.65333 10.3892 8.504C10.4585 8.35467 10.4932 8.176 10.4932 7.968ZM12.258 6.288H16.034V7.04H13.146V8.688H15.874V9.44H13.146V11.248H16.186L16.066 12H12.258V6.288ZM14.586 4.704H15.602L14.458 5.816H13.642L14.586 4.704ZM16.8949 6.288H20.5109V7.048H17.7749V8.784H20.3429V9.56H17.7749V12H16.8949V6.288ZM21.2896 6.288H25.0656V7.04H22.1776V8.688H24.9056V9.44H22.1776V11.248H25.2176L25.0976 12H21.2896V6.288ZM23.6176 4.704H24.6336L23.4896 5.816H22.6736L23.6176 4.704ZM25.9264 6.288H27.8784C28.2998 6.288 28.6464 6.33333 28.9184 6.424C29.1958 6.51467 29.4144 6.64 29.5744 6.8C29.7344 6.95467 29.8464 7.13067 29.9104 7.328C29.9798 7.52533 30.0144 7.728 30.0144 7.936C30.0144 8.29867 29.9371 8.61067 29.7824 8.872C29.6331 9.13333 29.3931 9.33867 29.0624 9.488L30.2544 12H29.2864L28.2304 9.688C28.1664 9.69333 28.0998 9.69867 28.0304 9.704C27.9664 9.704 27.9051 9.704 27.8464 9.704H26.7904V12H25.9264V6.288ZM29.1344 7.968C29.1344 7.76533 29.0971 7.592 29.0224 7.448C28.9478 7.304 28.8144 7.19467 28.6224 7.12C28.4358 7.04533 28.1744 7.008 27.8384 7.008H26.7904V8.976H27.9264C28.2411 8.976 28.4864 8.936 28.6624 8.856C28.8384 8.77067 28.9611 8.65333 29.0304 8.504C29.0998 8.35467 29.1344 8.176 29.1344 7.968ZM30.8993 6.288H34.6753V7.04H31.7873V8.688H34.5153V9.44H31.7873V11.248H34.8273L34.7073 12H30.8993V6.288ZM35.5361 6.288H36.3841L39.1361 10.592V6.288H39.9841V12H39.1681L36.3841 7.704V12H35.5361V6.288ZM42.4322 7.072H40.5842V6.288H45.1682V7.072H43.3202V12H42.4322V7.072Z" fill="#E6E6E6"/>
</g>
<defs>
<filter id="filter0_i_792_1060" x="0" y="0" width="52" height="22" filterUnits="userSpaceOnUse" color-interpolation-filters="sRGB">
<feFlood flood-opacity="0" result="BackgroundImageFix"/>
<feBlend mode="normal" in="SourceGraphic" in2="BackgroundImageFix" result="shape"/>
<feColorMatrix in="SourceAlpha" type="matrix" values="0 0 0 0 0 0 0 0 0 0 0 0 0 0 0 0 0 0 127 0" result="hardAlpha"/>
<feOffset dy="4"/>
<feGaussianBlur stdDeviation="9.45"/>
<feComposite in2="hardAlpha" operator="arithmetic" k2="-1" k3="1"/>
<feColorMatrix type="matrix" values="0 0 0 0 1 0 0 0 0 1 0 0 0 0 1 0 0 0 0.06 0"/>
<feBlend mode="normal" in2="shape" result="effect1_innerShadow_792_1060"/>
</filter>
<linearGradient id="paint0_linear_792_1060" x1="26" y1="0" x2="26" y2="18" gradientUnits="userSpaceOnUse">
<stop stop-color="#181820"/>
<stop offset="1" stop-color="#3A3947"/>
</linearGradient>
<linearGradient id="paint1_linear_792_1060" x1="-4.73947e-07" y1="0.446026" x2="52" y2="18" gradientUnits="userSpaceOnUse">
<stop stop-color="#B8E9D4"/>
<stop offset="0.5" stop-color="#F4985A"/>
<stop offset="1" stop-color="#12243F"/>
</linearGradient>
</defs>
</svg>
