<svg width="323" height="400" viewBox="0 0 323 400" fill="none" xmlns="http://www.w3.org/2000/svg">
<path d="M95.6737 361.337L8.31477 145.738L11.379 46.0891L46.521 26.0702L83.4616 9.94292L155.752 29.4291L217.576 77.3655L303.815 329.375L251.87 396.831L95.6737 361.337Z" fill="#C4C4C4"/>
<g opacity="0.25" filter="url(#filter0_d_293_1594)">
<path d="M104.169 354.73L16.8099 139.13L19.8742 39.4816L55.0162 19.4627L91.9567 3.33538L164.247 22.8215L226.071 70.7579L312.31 322.768L260.365 390.223L104.169 354.73Z" fill="#D9D9D9" fill-opacity="0.6" shape-rendering="crispEdges"/>
<path d="M104.169 354.73L16.8099 139.13L19.8742 39.4816L55.0162 19.4627L91.9567 3.33538L164.247 22.8215L226.071 70.7579L312.31 322.768L260.365 390.223L104.169 354.73Z" stroke="white" stroke-opacity="0.4" stroke-width="0.5" shape-rendering="crispEdges"/>
</g>
<defs>
<filter id="filter0_d_293_1594" x="6.55843" y="-2.92883" width="316.032" height="407.431" filterUnits="userSpaceOnUse" color-interpolation-filters="sRGB">
<feFlood flood-opacity="0" result="BackgroundImageFix"/>
<feColorMatrix in="SourceAlpha" type="matrix" values="0 0 0 0 0 0 0 0 0 0 0 0 0 0 0 0 0 0 127 0" result="hardAlpha"/>
<feOffset dy="4"/>
<feGaussianBlur stdDeviation="5"/>
<feComposite in2="hardAlpha" operator="out"/>
<feColorMatrix type="matrix" values="0 0 0 0 0 0 0 0 0 0 0 0 0 0 0 0 0 0 1 0"/>
<feBlend mode="normal" in2="BackgroundImageFix" result="effect1_dropShadow_293_1594"/>
<feBlend mode="normal" in="SourceGraphic" in2="effect1_dropShadow_293_1594" result="shape"/>
</filter>
</defs>
</svg>
